<mxfile host="app.diagrams.net" agent="Mozilla/5.0 (Macintosh; Intel Mac OS X 10_15_7) AppleWebKit/537.36 (KHTML, like Gecko) Chrome/129.0.0.0 Safari/537.36" version="24.8.0">
  <diagram name="Page-1" id="e7e014a7-5840-1c2e-5031-d8a46d1fe8dd">
    <mxGraphModel dx="2736" dy="1062" grid="1" gridSize="10" guides="1" tooltips="1" connect="1" arrows="1" fold="1" page="1" pageScale="1" pageWidth="1169" pageHeight="826" background="none" math="0" shadow="0">
      <root>
        <mxCell id="0" />
        <mxCell id="1" parent="0" />
        <mxCell id="38" value="" style="ellipse;shape=endState;fillColor=#000000;strokeColor=#ff0000" parent="1" vertex="1">
          <mxGeometry x="810" y="796" width="30" height="30" as="geometry" />
        </mxCell>
        <mxCell id="33" value="logout()" style="" parent="1" vertex="1">
          <mxGeometry x="770" y="710" width="110" height="50" as="geometry" />
        </mxCell>
        <mxCell id="13" value="" style="ellipse;shape=startState;fillColor=#000000;strokeColor=#ff0000;" parent="1" vertex="1">
          <mxGeometry x="-100" y="510" width="30" height="30" as="geometry" />
        </mxCell>
        <mxCell id="14" value="" style="edgeStyle=elbowEdgeStyle;elbow=horizontal;verticalAlign=bottom;endArrow=open;endSize=8;strokeColor=#FF0000;endFill=1;rounded=0" parent="1" source="13" target="15" edge="1">
          <mxGeometry x="484.5" y="148" as="geometry">
            <mxPoint x="215" y="190" as="targetPoint" />
          </mxGeometry>
        </mxCell>
        <mxCell id="15" value="Open APP" style="" parent="1" vertex="1">
          <mxGeometry x="-10" y="500" width="110" height="50" as="geometry" />
        </mxCell>
        <mxCell id="18" value="homepage" style="" parent="1" vertex="1">
          <mxGeometry x="330" y="500" width="110" height="50" as="geometry" />
        </mxCell>
        <mxCell id="30" value="login()" style="" parent="1" vertex="1">
          <mxGeometry x="170" y="543" width="110" height="50" as="geometry" />
        </mxCell>
        <mxCell id="16" value="createProfile" style="" parent="1" vertex="1">
          <mxGeometry x="170" y="460" width="110" height="50" as="geometry" />
        </mxCell>
        <mxCell id="qKlgnaqLc0EUumlXiUi1-44" value="" style="whiteSpace=wrap;strokeColor=#FF0000;fillColor=#FF0000" vertex="1" parent="1">
          <mxGeometry x="130" y="502.5" width="5" height="45" as="geometry" />
        </mxCell>
        <mxCell id="qKlgnaqLc0EUumlXiUi1-47" value="" style="edgeStyle=elbowEdgeStyle;elbow=horizontal;verticalAlign=bottom;endArrow=open;endSize=8;strokeColor=#FF0000;endFill=1;rounded=0;entryX=0;entryY=0.5;entryDx=0;entryDy=0;exitX=0;exitY=0.5;exitDx=0;exitDy=0;" edge="1" parent="1" source="qKlgnaqLc0EUumlXiUi1-44" target="16">
          <mxGeometry x="484.5" y="148" as="geometry">
            <mxPoint x="190" y="520" as="targetPoint" />
            <mxPoint x="130" y="520" as="sourcePoint" />
          </mxGeometry>
        </mxCell>
        <mxCell id="qKlgnaqLc0EUumlXiUi1-48" value="" style="edgeStyle=elbowEdgeStyle;elbow=horizontal;verticalAlign=bottom;endArrow=open;endSize=8;strokeColor=#FF0000;endFill=1;rounded=0;entryX=0;entryY=0.5;entryDx=0;entryDy=0;exitX=0;exitY=0.5;exitDx=0;exitDy=0;" edge="1" parent="1" source="qKlgnaqLc0EUumlXiUi1-44" target="30">
          <mxGeometry x="484.5" y="148" as="geometry">
            <mxPoint x="180" y="475" as="targetPoint" />
            <mxPoint x="130" y="520" as="sourcePoint" />
          </mxGeometry>
        </mxCell>
        <mxCell id="qKlgnaqLc0EUumlXiUi1-49" value="" style="edgeStyle=elbowEdgeStyle;elbow=horizontal;verticalAlign=bottom;endArrow=open;endSize=8;strokeColor=#FF0000;endFill=1;rounded=0" edge="1" parent="1">
          <mxGeometry x="484.5" y="148" as="geometry">
            <mxPoint x="130" y="525" as="targetPoint" />
            <mxPoint x="100" y="524.63" as="sourcePoint" />
          </mxGeometry>
        </mxCell>
        <mxCell id="qKlgnaqLc0EUumlXiUi1-51" value="navigate to&#xa;user data" style="" vertex="1" parent="1">
          <mxGeometry x="475" y="500" width="110" height="50" as="geometry" />
        </mxCell>
        <mxCell id="qKlgnaqLc0EUumlXiUi1-52" value="edit fields" style="" vertex="1" parent="1">
          <mxGeometry x="620" y="500" width="110" height="50" as="geometry" />
        </mxCell>
        <mxCell id="qKlgnaqLc0EUumlXiUi1-53" value="input bad" style="" vertex="1" parent="1">
          <mxGeometry x="770" y="460" width="110" height="50" as="geometry" />
        </mxCell>
        <mxCell id="qKlgnaqLc0EUumlXiUi1-54" value="input good" style="" vertex="1" parent="1">
          <mxGeometry x="770" y="543" width="110" height="50" as="geometry" />
        </mxCell>
        <mxCell id="qKlgnaqLc0EUumlXiUi1-56" value="" style="edgeStyle=elbowEdgeStyle;elbow=horizontal;verticalAlign=bottom;endArrow=open;endSize=8;strokeColor=#FF0000;endFill=1;rounded=0;entryX=0;entryY=0.5;entryDx=0;entryDy=0;" edge="1" parent="1" target="qKlgnaqLc0EUumlXiUi1-51">
          <mxGeometry x="484.5" y="148" as="geometry">
            <mxPoint x="470" y="525" as="targetPoint" />
            <mxPoint x="440" y="524.63" as="sourcePoint" />
          </mxGeometry>
        </mxCell>
        <mxCell id="qKlgnaqLc0EUumlXiUi1-57" value="" style="edgeStyle=elbowEdgeStyle;elbow=horizontal;verticalAlign=bottom;endArrow=open;endSize=8;strokeColor=#FF0000;endFill=1;rounded=0;entryX=0;entryY=0.5;entryDx=0;entryDy=0;" edge="1" parent="1">
          <mxGeometry x="484.5" y="148" as="geometry">
            <mxPoint x="620" y="525" as="targetPoint" />
            <mxPoint x="585" y="524.63" as="sourcePoint" />
          </mxGeometry>
        </mxCell>
        <mxCell id="qKlgnaqLc0EUumlXiUi1-58" value="" style="edgeStyle=elbowEdgeStyle;elbow=horizontal;verticalAlign=bottom;endArrow=open;endSize=8;strokeColor=#FF0000;endFill=1;rounded=0;entryX=0;entryY=0.5;entryDx=0;entryDy=0;exitX=0;exitY=0.5;exitDx=0;exitDy=0;" edge="1" parent="1">
          <mxGeometry x="484.5" y="148" as="geometry">
            <mxPoint x="770" y="483.5" as="targetPoint" />
            <mxPoint x="730" y="523.5" as="sourcePoint" />
          </mxGeometry>
        </mxCell>
        <mxCell id="qKlgnaqLc0EUumlXiUi1-59" value="" style="edgeStyle=elbowEdgeStyle;elbow=horizontal;verticalAlign=bottom;endArrow=open;endSize=8;strokeColor=#FF0000;endFill=1;rounded=0;entryX=0;entryY=0.5;entryDx=0;entryDy=0;exitX=0;exitY=0.5;exitDx=0;exitDy=0;" edge="1" parent="1">
          <mxGeometry x="484.5" y="148" as="geometry">
            <mxPoint x="770" y="566.5" as="targetPoint" />
            <mxPoint x="730" y="523.5" as="sourcePoint" />
          </mxGeometry>
        </mxCell>
        <mxCell id="qKlgnaqLc0EUumlXiUi1-60" value="" style="edgeStyle=elbowEdgeStyle;elbow=horizontal;verticalAlign=bottom;endArrow=open;endSize=8;strokeColor=#FF0000;endFill=1;rounded=0;entryX=0.75;entryY=0;entryDx=0;entryDy=0;exitX=0.5;exitY=0;exitDx=0;exitDy=0;" edge="1" parent="1" source="qKlgnaqLc0EUumlXiUi1-53" target="qKlgnaqLc0EUumlXiUi1-52">
          <mxGeometry x="484.5" y="148" as="geometry">
            <mxPoint x="630" y="535" as="targetPoint" />
            <mxPoint x="595" y="534.63" as="sourcePoint" />
            <Array as="points">
              <mxPoint x="800" y="420" />
            </Array>
          </mxGeometry>
        </mxCell>
        <mxCell id="qKlgnaqLc0EUumlXiUi1-61" value="" style="edgeStyle=elbowEdgeStyle;elbow=horizontal;verticalAlign=bottom;endArrow=open;endSize=8;strokeColor=#FF0000;endFill=1;rounded=0;" edge="1" parent="1">
          <mxGeometry x="484.5" y="148" as="geometry">
            <mxPoint x="330" y="530" as="targetPoint" />
            <mxPoint x="280" y="484.71" as="sourcePoint" />
          </mxGeometry>
        </mxCell>
        <mxCell id="qKlgnaqLc0EUumlXiUi1-62" value="" style="edgeStyle=elbowEdgeStyle;elbow=horizontal;verticalAlign=bottom;endArrow=open;endSize=8;strokeColor=#FF0000;endFill=1;rounded=0;" edge="1" parent="1">
          <mxGeometry x="484.5" y="148" as="geometry">
            <mxPoint x="330" y="530" as="targetPoint" />
            <mxPoint x="280" y="573" as="sourcePoint" />
          </mxGeometry>
        </mxCell>
        <mxCell id="qKlgnaqLc0EUumlXiUi1-63" value="save" style="" vertex="1" parent="1">
          <mxGeometry x="770" y="623" width="110" height="50" as="geometry" />
        </mxCell>
        <mxCell id="qKlgnaqLc0EUumlXiUi1-64" value="" style="edgeStyle=elbowEdgeStyle;elbow=horizontal;verticalAlign=bottom;endArrow=open;endSize=8;strokeColor=#FF0000;endFill=1;rounded=0;entryX=0.455;entryY=0;entryDx=0;entryDy=0;entryPerimeter=0;" edge="1" parent="1">
          <mxGeometry x="484.5" y="148" as="geometry">
            <mxPoint x="824.9699999999997" y="710" as="targetPoint" />
            <mxPoint x="824.92" y="673" as="sourcePoint" />
          </mxGeometry>
        </mxCell>
        <mxCell id="qKlgnaqLc0EUumlXiUi1-65" value="" style="edgeStyle=elbowEdgeStyle;elbow=horizontal;verticalAlign=bottom;endArrow=open;endSize=8;strokeColor=#FF0000;endFill=1;rounded=0;entryX=0.5;entryY=0;entryDx=0;entryDy=0;" edge="1" parent="1" target="qKlgnaqLc0EUumlXiUi1-63">
          <mxGeometry x="484.5" y="148" as="geometry">
            <mxPoint x="825" y="620" as="targetPoint" />
            <mxPoint x="824.89" y="593" as="sourcePoint" />
          </mxGeometry>
        </mxCell>
        <mxCell id="qKlgnaqLc0EUumlXiUi1-67" value="" style="edgeStyle=elbowEdgeStyle;elbow=horizontal;verticalAlign=bottom;endArrow=open;endSize=8;strokeColor=#FF0000;endFill=1;rounded=0;entryX=0.455;entryY=0;entryDx=0;entryDy=0;entryPerimeter=0;" edge="1" parent="1">
          <mxGeometry x="484.5" y="148" as="geometry">
            <mxPoint x="825.0099999999996" y="796" as="targetPoint" />
            <mxPoint x="824.9599999999999" y="759" as="sourcePoint" />
          </mxGeometry>
        </mxCell>
      </root>
    </mxGraphModel>
  </diagram>
</mxfile>
